<svg xmlns="http://www.w3.org/2000/svg" fill="none" viewBox="-0.5 -0.5 24 24" height="24" width="24"><path stroke="#ffffff" stroke-linejoin="round" d="M1.4375 3.354166666666667a1.9166666666666667 1.9166666666666667 0 1 0 3.8333333333333335 0 1.9166666666666667 1.9166666666666667 0 1 0 -3.8333333333333335 0" stroke-width="1"></path><path stroke="#ffffff" stroke-linejoin="round" d="M1.4375 21.5625v-13.416666666666668h3.8333333333333335v13.416666666666668h-3.8333333333333335Z" clip-rule="evenodd" stroke-width="1"></path><path stroke="#ffffff" stroke-linejoin="round" d="M7.666666666666667 8.145833333333334v13.416666666666668h3.8333333333333335v-6.620166666666667c0 -1.0465000000000002 0.9583333333333334 -2.963166666666667 3.7327083333333335 -2.963166666666667 1.5745416666666667 0 2.4964583333333334 0.8097916666666667 2.4964583333333334 2.3958333333333335v7.1875h3.8333333333333335V14.375c0 -1.2544583333333332 -0.299 -2.814625 -1.3359166666666666 -4.098791666666667 -1.0963333333333334 -1.3579583333333334 -2.791625 -2.130375 -4.992916666666667 -2.130375 -1.4499583333333332 0 -2.716875 0.589375 -3.7336666666666667 1.3090833333333334V8.145833333333334H7.666666666666667Z" clip-rule="evenodd" stroke-width="1"></path></svg>