<svg xmlns="http://www.w3.org/2000/svg" fill="none" viewBox="-0.5 -0.5 24 24" height="24" width="24"><path stroke="#ffffff" d="M11.979166666666668 15.333333333333334s0.4331666666666667 -0.9583333333333334 1.1998333333333333 -0.9583333333333334c0.692875 0 0.71875 0.7829583333333333 0.7177916666666667 0.9334166666666667l-0.0009583333333333334 0.049833333333333334v2.346l0 0.049833333333333334c0.0019166666666666668 0.15045833333333333 -0.023958333333333335 0.9334166666666667 -0.7168333333333333 0.9334166666666667 -0.7666666666666667 0 -1.1998333333333333 -0.9583333333333334 -1.1998333333333333 -0.9583333333333334" stroke-width="1"></path><path stroke="#ffffff" d="M11.979166666666668 11.979166666666668V19.166666666666668" stroke-width="1"></path><path stroke="#ffffff" stroke-linejoin="round" d="M18.470916666666668 10.468833333333333C16.780416666666667 10.301125 13.818208333333335 10.0625 11.5 10.0625c-2.319166666666667 0 -5.2804166666666665 0.238625 -6.970916666666667 0.4063333333333333a0.91425 0.91425 0 0 0 -0.8184166666666667 0.7628333333333334C3.549666666666667 12.237916666666667 3.354166666666667 13.8345 3.354166666666667 15.333333333333334c0 1.5755 0.215625 3.690541666666667 0.3814166666666667 5.014958333333333a0.9315 0.9315 0 0 0 0.8347083333333334 0.8117083333333334c1.69625 0.16770833333333332 4.629708333333334 0.4025 6.929708333333333 0.4025 2.3 0 5.2325 -0.23479166666666668 6.928750000000001 -0.4025a0.9315 0.9315 0 0 0 0.8356666666666667 -0.8117083333333334c0.16579166666666667 -1.3244166666666666 0.3814166666666667 -3.4394583333333335 0.3814166666666667 -5.014958333333333 0 -1.4988333333333335 -0.1955 -3.095416666666667 -0.3565 -4.1016666666666675a0.91425 0.91425 0 0 0 -0.8184166666666667 -0.7628333333333334Z" stroke-width="1"></path><path stroke="#ffffff" d="M4.791666666666667 12.458333333333334h2.875" stroke-width="1"></path><path stroke="#ffffff" d="M6.229166666666667 12.458333333333334v6.708333333333334" stroke-width="1"></path><path stroke="#ffffff" d="M13.895833333333334 2.875v4.3125c0 0.9583333333333334 0.6027916666666667 0.9583333333333334 0.6027916666666667 0.9583333333333334 0.529 0 1.3138750000000001 -0.9085 1.3138750000000001 -1.4375" stroke-width="1"></path><path stroke="#ffffff" d="M15.8125 8.625V2.875" stroke-width="1"></path><path stroke="#ffffff" d="M8.145833333333334 13.895833333333334v3.8333333333333335c0 0.9583333333333334 0.6027916666666667 0.9583333333333334 0.6027916666666667 0.9583333333333334 0.529 0 1.3138750000000001 -0.9085 1.3138750000000001 -1.4375" stroke-width="1"></path><path stroke="#ffffff" d="M10.0625 19.166666666666668v-5.270833333333334" stroke-width="1"></path><path stroke="#ffffff" stroke-linejoin="round" d="m5.75 1.4375 1.9166666666666667 3.8333333333333335 1.9166666666666667 -3.8333333333333335" stroke-width="1"></path><path stroke="#ffffff" stroke-linejoin="round" d="M7.666666666666667 5.270833333333334V8.625" stroke-width="1"></path><path stroke="#ffffff" d="M11.979166666666668 7.1875v-2.875a0.9583333333333334 0.9583333333333334 0 1 0 -1.9166666666666667 0v2.875a0.9583333333333334 0.9583333333333334 0 1 0 1.9166666666666667 0Z" stroke-width="1"></path><path stroke="#ffffff" stroke-linejoin="round" d="M17.729166666666668 17.729166666666668a0.9583333333333334 0.9583333333333334 0 1 1 -1.9166666666666667 0V16.291666666666668m0 0v-0.9583333333333334a0.9583333333333334 0.9583333333333334 0 1 1 1.9166666666666667 0v0.9583333333333334h-1.9166666666666667Z" stroke-width="1"></path></svg>